REM DIRINDEX 1\2,1\3
REM DIRNAME folder01,folder02,folder03
TITLE ""
FILE "Disc1Track16.mp3" MP3
  TRACK 01 AUDIO
    TITLE "0:"
    INDEX 01 00:00:00
  TRACK 02 AUDIO
    TITLE "3:cjc116_1610"
    INDEX 01 00:00:07
  TRACK 03 AUDIO
    TITLE "0:"
    INDEX 01 00:01:64
  TRACK 04 AUDIO
    TITLE "2:cjc116_1611"
    INDEX 01 00:02:42
  TRACK 05 AUDIO
    TITLE "0:"
    INDEX 01 00:03:49
  TRACK 06 AUDIO
    TITLE "2:cjc116_1612"
    INDEX 01 00:03:72
  TRACK 07 AUDIO
    TITLE "0:"
    INDEX 01 00:07:33
  TRACK 08 AUDIO
    TITLE "2:cjc116_1613"
    INDEX 01 00:08:17
  TRACK 09 AUDIO
    TITLE "0:"
    INDEX 01 00:09:18
  TRACK 10 AUDIO
    TITLE "2:cjc116_1614"
    INDEX 01 00:09:38
  TRACK 11 AUDIO
    TITLE "0:"
    INDEX 01 00:14:29
  TRACK 12 AUDIO
    TITLE "2:cjc116_1615"
    INDEX 01 00:15:05
  TRACK 13 AUDIO
    TITLE "0:"
    INDEX 01 00:15:72
  TRACK 14 AUDIO
    TITLE "2:cjc116_1616"
    INDEX 01 00:16:20
  TRACK 15 AUDIO
    TITLE "0:"
    INDEX 01 00:19:65
  TRACK 16 AUDIO
    TITLE "2:cjc116_1617"
    INDEX 01 00:20:36
  TRACK 17 AUDIO
    TITLE "0:"
    INDEX 01 00:21:43
  TRACK 18 AUDIO
    TITLE "2:cjc116_1618"
    INDEX 01 00:21:57
  TRACK 19 AUDIO
    TITLE "0:"
    INDEX 01 00:25:37
  TRACK 20 AUDIO
    TITLE "2:cjc116_1619"
    INDEX 01 00:26:07
  TRACK 21 AUDIO
    TITLE "0:"
    INDEX 01 00:27:04
  TRACK 22 AUDIO
    TITLE "2:cjc116_1620"
    INDEX 01 00:27:16
  TRACK 23 AUDIO
    TITLE "0:"
    INDEX 01 00:31:14
  TRACK 24 AUDIO
    TITLE "2:cjc116_1621"
    INDEX 01 00:31:51
  TRACK 25 AUDIO
    TITLE "0:"
    INDEX 01 00:32:58
  TRACK 26 AUDIO
    TITLE "2:cjc116_1622"
    INDEX 01 00:33:03
  TRACK 27 AUDIO
    TITLE "0:"
    INDEX 01 00:36:33
  TRACK 28 AUDIO
    TITLE "2:cjc116_1623"
    INDEX 01 00:36:74
  TRACK 29 AUDIO
    TITLE "0:"
    INDEX 01 00:38:08
  TRACK 30 AUDIO
    TITLE "2:cjc116_1624"
    INDEX 01 00:38:30
  TRACK 31 AUDIO
    TITLE "0:"
    INDEX 01 00:43:58
  TRACK 32 AUDIO
    TITLE "2:cjc116_1625"
    INDEX 01 00:44:20
  TRACK 33 AUDIO
    TITLE "0:"
    INDEX 01 00:45:22
  TRACK 34 AUDIO
    TITLE "2:cjc116_1626"
    INDEX 01 00:45:37
  TRACK 35 AUDIO
    TITLE "0:"
    INDEX 01 00:51:24
  TRACK 36 AUDIO
    TITLE "2:cjc116_1627"
    INDEX 01 00:51:65
  TRACK 37 AUDIO
    TITLE "0:"
    INDEX 01 00:52:73
  TRACK 38 AUDIO
    TITLE "2:cjc116_1628"
    INDEX 01 00:53:23
  TRACK 39 AUDIO
    TITLE "0:"
    INDEX 01 00:58:42
  TRACK 40 AUDIO
    TITLE "2:cjc116_1629"
    INDEX 01 00:59:14
  TRACK 41 AUDIO
    TITLE "0:"
    INDEX 01 01:00:15
  TRACK 42 AUDIO
    TITLE "2:cjc116_1630"
    INDEX 01 01:00:37
  TRACK 43 AUDIO
    TITLE "0:"
    INDEX 01 01:04:48
  TRACK 44 AUDIO
    TITLE "2:cjc116_1631"
    INDEX 01 01:05:19
  TRACK 45 AUDIO
    TITLE "0:"
    INDEX 01 01:06:12
  TRACK 46 AUDIO
    TITLE "2:cjc116_1632"
    INDEX 01 01:06:28
  TRACK 47 AUDIO
    TITLE "0:"
    INDEX 01 01:10:71
  TRACK 48 AUDIO
    TITLE "2:cjc116_1633"
    INDEX 01 01:11:45
  TRACK 49 AUDIO
    TITLE "0:"
    INDEX 01 01:12:46
  TRACK 50 AUDIO
    TITLE "2:cjc116_1634"
    INDEX 01 01:12:64
  TRACK 51 AUDIO
    TITLE "0:"
    INDEX 01 01:17:14
  TRACK 52 AUDIO
    TITLE "2:cjc116_1635"
    INDEX 01 01:17:61
  TRACK 53 AUDIO
    TITLE "0:"
    INDEX 01 01:18:56
  TRACK 54 AUDIO
    TITLE "2:cjc116_1636"
    INDEX 01 01:18:72
  TRACK 55 AUDIO
    TITLE "0:"
    INDEX 01 01:25:33
  TRACK 56 AUDIO
    TITLE "2:cjc116_1637"
    INDEX 01 01:26:05
  TRACK 57 AUDIO
    TITLE "0:"
    INDEX 01 01:27:06
  TRACK 58 AUDIO
    TITLE "2:cjc116_1638"
    INDEX 01 01:27:16
  TRACK 59 AUDIO
    TITLE "0:"
    INDEX 01 01:31:28
  TRACK 60 AUDIO
    TITLE "2:cjc116_1639"
    INDEX 01 01:32:02
  TRACK 61 AUDIO
    TITLE "0:"
    INDEX 01 01:33:07
  TRACK 62 AUDIO
    TITLE "2:cjc116_1640"
    INDEX 01 01:33:23
  TRACK 63 AUDIO
    TITLE "0:"
    INDEX 01 01:37:60
  TRACK 64 AUDIO
    TITLE "2:cjc116_1641"
    INDEX 01 01:38:34
  TRACK 65 AUDIO
    TITLE "0:"
    INDEX 01 01:39:25
  TRACK 66 AUDIO
    TITLE "2:cjc116_1642"
    INDEX 01 01:39:37
  TRACK 67 AUDIO
    TITLE "0:"
    INDEX 01 01:43:56
  TRACK 68 AUDIO
    TITLE "2:cjc116_1643"
    INDEX 01 01:44:28
  TRACK 69 AUDIO
    TITLE "0:"
    INDEX 01 01:45:06
  TRACK 70 AUDIO
    TITLE "2:cjc116_1644"
    INDEX 01 01:45:28
  TRACK 71 AUDIO
    TITLE "0:"
    INDEX 01 01:49:04
  TRACK 72 AUDIO
    TITLE "2:cjc116_1645"
    INDEX 01 01:49:51
  TRACK 73 AUDIO
    TITLE "0:"
    INDEX 01 01:50:54
  TRACK 74 AUDIO
    TITLE "2:cjc116_1646"
    INDEX 01 01:50:64
  TRACK 75 AUDIO
    TITLE "0:"
    INDEX 01 01:55:42
  TRACK 76 AUDIO
    TITLE "2:cjc116_1647"
    INDEX 01 01:56:12
  TRACK 77 AUDIO
    TITLE "0:"
    INDEX 01 01:57:08
  TRACK 78 AUDIO
    TITLE "2:cjc116_1648"
    INDEX 01 01:57:15
  TRACK 79 AUDIO
    TITLE "0:"
    INDEX 01 02:01:62
  TRACK 80 AUDIO
    TITLE "2:cjc116_1649"
    INDEX 01 02:02:28
  TRACK 81 AUDIO
    TITLE "0:"
    INDEX 01 02:03:24
  TRACK 82 AUDIO
    TITLE "2:cjc116_1650"
    INDEX 01 02:03:41
  TRACK 83 AUDIO
    TITLE "0:"
    INDEX 01 02:07:04
  TRACK 84 AUDIO
    TITLE "2:cjc116_1651"
    INDEX 01 02:07:43
  TRACK 85 AUDIO
    TITLE "0:"
    INDEX 01 02:08:37
  TRACK 86 AUDIO
    TITLE "2:cjc116_1652"
    INDEX 01 02:08:50
  TRACK 87 AUDIO
    TITLE "0:"
    INDEX 01 02:11:70
  TRACK 88 AUDIO
    TITLE "2:cjc116_1653"
    INDEX 01 02:12:36
  TRACK 89 AUDIO
    TITLE "0:"
    INDEX 01 02:13:56
  TRACK 90 AUDIO
    TITLE "2:cjc116_1654"
    INDEX 01 02:13:67
  TRACK 91 AUDIO
    TITLE "0:"
    INDEX 01 02:17:45
  TRACK 92 AUDIO
    TITLE "2:cjc116_1655"
    INDEX 01 02:18:14
  TRACK 93 AUDIO
    TITLE "0:"
    INDEX 01 02:19:19
  TRACK 94 AUDIO
    TITLE "2:cjc116_1656"
    INDEX 01 02:19:31
  TRACK 95 AUDIO
    TITLE "0:"
    INDEX 01 02:23:07
  TRACK 96 AUDIO
    TITLE "2:cjc116_1657"
    INDEX 01 02:23:48
  TRACK 97 AUDIO
    TITLE "0:"
    INDEX 01 02:24:42
  TRACK 98 AUDIO
    TITLE "2:cjc116_1658"
    INDEX 01 02:24:59
  TRACK 99 AUDIO
    TITLE "0:"
    INDEX 01 02:29:45
  TRACK 100 AUDIO
    TITLE "2:cjc116_1659"
    INDEX 01 02:30:13
  TRACK 101 AUDIO
    TITLE "0:"
    INDEX 01 02:31:03
  TRACK 102 AUDIO
    TITLE "2:cjc116_1660"
    INDEX 01 02:31:18
  TRACK 103 AUDIO
    TITLE "0:"
    INDEX 01 02:35:36
  TRACK 104 AUDIO
    TITLE "2:cjc116_1661"
    INDEX 01 02:36:06
  TRACK 105 AUDIO
    TITLE "0:"
    INDEX 01 02:37:05
  TRACK 106 AUDIO
    TITLE "2:cjc116_1662"
    INDEX 01 02:37:19
  TRACK 107 AUDIO
    TITLE "0:"
    INDEX 01 02:41:50
  TRACK 108 AUDIO
    TITLE "2:cjc116_1663"
    INDEX 01 02:42:18
  TRACK 109 AUDIO
    TITLE "0:"
    INDEX 01 02:43:08
  TRACK 110 AUDIO
    TITLE "2:cjc116_1664"
    INDEX 01 02:43:15
  TRACK 111 AUDIO
    TITLE "0:"
    INDEX 01 02:47:27
  TRACK 112 AUDIO
    TITLE "2:cjc116_1665"
    INDEX 01 02:47:72
  TRACK 113 AUDIO
    TITLE "0:"
    INDEX 01 02:48:60
  TRACK 114 AUDIO
    TITLE "2:cjc116_1666"
    INDEX 01 02:49:02
  TRACK 115 AUDIO
    TITLE "0:"
    INDEX 01 02:52:32
  TRACK 116 AUDIO
    TITLE "2:cjc116_1667"
    INDEX 01 02:53:08
  TRACK 117 AUDIO
    TITLE "0:"
    INDEX 01 02:53:73
  TRACK 118 AUDIO
    TITLE "2:cjc116_1668"
    INDEX 01 02:54:11
  TRACK 119 AUDIO
    TITLE "0:"
    INDEX 01 02:57:51
  TRACK 120 AUDIO
    TITLE "2:cjc116_1669"
    INDEX 01 02:58:25
  TRACK 121 AUDIO
    TITLE "0:"
    INDEX 01 02:59:22
  TRACK 122 AUDIO
    TITLE "2:cjc116_1670"
    INDEX 01 02:59:34
  TRACK 123 AUDIO
    TITLE "0:"
    INDEX 01 03:03:06
  TRACK 124 AUDIO
    TITLE "2:cjc116_1671"
    INDEX 01 03:03:48
  TRACK 125 AUDIO
    TITLE "0:"
    INDEX 01 03:04:53
  TRACK 126 AUDIO
    TITLE "2:cjc116_1672"
    INDEX 01 03:04:65
  TRACK 127 AUDIO
    TITLE "0:"
    INDEX 01 03:08:60
  TRACK 128 AUDIO
    TITLE "2:cjc116_1673"
    INDEX 01 03:09:31
  TRACK 129 AUDIO
    TITLE "0:"
    INDEX 01 03:10:40
  TRACK 130 AUDIO
    TITLE "2:cjc116_1674"
    INDEX 01 03:10:59
  TRACK 131 AUDIO
    TITLE "0:"
    INDEX 01 03:15:08
  TRACK 132 AUDIO
    TITLE "2:cjc116_1675"
    INDEX 01 03:15:45
  TRACK 133 AUDIO
    TITLE "0:"
    INDEX 01 03:16:38
  TRACK 134 AUDIO
    TITLE "2:cjc116_1676"
    INDEX 01 03:16:50
  TRACK 135 AUDIO
    TITLE "0:"
    INDEX 01 03:20:52
